<mxfile host="app.diagrams.net" modified="2022-03-22T08:47:49.318Z" agent="5.0 (Windows NT 10.0; Win64; x64) AppleWebKit/537.36 (KHTML, like Gecko) Chrome/97.0.4692.71 Safari/537.36" etag="m8w3vtD_XZAxhlVjB73n" version="17.1.3" type="github">
  <diagram id="C5RBs43oDa-KdzZeNtuy" name="Page-1">
    <mxGraphModel dx="2062" dy="1114" grid="1" gridSize="10" guides="1" tooltips="1" connect="1" arrows="1" fold="1" page="1" pageScale="1" pageWidth="827" pageHeight="1169" math="0" shadow="0">
      <root>
        <mxCell id="WIyWlLk6GJQsqaUBKTNV-0" />
        <mxCell id="WIyWlLk6GJQsqaUBKTNV-1" parent="WIyWlLk6GJQsqaUBKTNV-0" />
        <mxCell id="ZlOKWvTsib9ipnOsue6j-6" style="edgeStyle=orthogonalEdgeStyle;rounded=0;orthogonalLoop=1;jettySize=auto;html=1;entryX=0.5;entryY=0;entryDx=0;entryDy=0;" edge="1" parent="WIyWlLk6GJQsqaUBKTNV-1" source="WIyWlLk6GJQsqaUBKTNV-3" target="ZlOKWvTsib9ipnOsue6j-4">
          <mxGeometry relative="1" as="geometry" />
        </mxCell>
        <mxCell id="ZlOKWvTsib9ipnOsue6j-7" style="edgeStyle=orthogonalEdgeStyle;rounded=0;orthogonalLoop=1;jettySize=auto;html=1;entryX=0.5;entryY=0;entryDx=0;entryDy=0;" edge="1" parent="WIyWlLk6GJQsqaUBKTNV-1" source="WIyWlLk6GJQsqaUBKTNV-3" target="ZlOKWvTsib9ipnOsue6j-3">
          <mxGeometry relative="1" as="geometry" />
        </mxCell>
        <mxCell id="ZlOKWvTsib9ipnOsue6j-8" style="edgeStyle=orthogonalEdgeStyle;rounded=0;orthogonalLoop=1;jettySize=auto;html=1;" edge="1" parent="WIyWlLk6GJQsqaUBKTNV-1" source="WIyWlLk6GJQsqaUBKTNV-3" target="ZlOKWvTsib9ipnOsue6j-5">
          <mxGeometry relative="1" as="geometry" />
        </mxCell>
        <mxCell id="WIyWlLk6GJQsqaUBKTNV-3" value="前端 leader" style="rounded=1;whiteSpace=wrap;html=1;fontSize=12;glass=0;strokeWidth=1;shadow=0;" parent="WIyWlLk6GJQsqaUBKTNV-1" vertex="1">
          <mxGeometry x="265" y="130" width="120" height="40" as="geometry" />
        </mxCell>
        <mxCell id="ZlOKWvTsib9ipnOsue6j-12" value="" style="edgeStyle=orthogonalEdgeStyle;rounded=0;orthogonalLoop=1;jettySize=auto;html=1;" edge="1" parent="WIyWlLk6GJQsqaUBKTNV-1" source="ZlOKWvTsib9ipnOsue6j-3" target="ZlOKWvTsib9ipnOsue6j-11">
          <mxGeometry relative="1" as="geometry" />
        </mxCell>
        <mxCell id="ZlOKWvTsib9ipnOsue6j-3" value="本科" style="ellipse;whiteSpace=wrap;html=1;" vertex="1" parent="WIyWlLk6GJQsqaUBKTNV-1">
          <mxGeometry x="114" y="310" width="90" height="60" as="geometry" />
        </mxCell>
        <mxCell id="ZlOKWvTsib9ipnOsue6j-37" style="edgeStyle=orthogonalEdgeStyle;rounded=0;orthogonalLoop=1;jettySize=auto;html=1;entryX=0.5;entryY=0;entryDx=0;entryDy=0;" edge="1" parent="WIyWlLk6GJQsqaUBKTNV-1" source="ZlOKWvTsib9ipnOsue6j-4" target="ZlOKWvTsib9ipnOsue6j-35">
          <mxGeometry relative="1" as="geometry" />
        </mxCell>
        <mxCell id="ZlOKWvTsib9ipnOsue6j-39" style="edgeStyle=orthogonalEdgeStyle;rounded=0;orthogonalLoop=1;jettySize=auto;html=1;entryX=0.5;entryY=0;entryDx=0;entryDy=0;" edge="1" parent="WIyWlLk6GJQsqaUBKTNV-1" source="ZlOKWvTsib9ipnOsue6j-4" target="ZlOKWvTsib9ipnOsue6j-36">
          <mxGeometry relative="1" as="geometry">
            <Array as="points">
              <mxPoint x="325" y="340" />
              <mxPoint x="459" y="340" />
            </Array>
          </mxGeometry>
        </mxCell>
        <mxCell id="ZlOKWvTsib9ipnOsue6j-41" style="edgeStyle=orthogonalEdgeStyle;rounded=0;orthogonalLoop=1;jettySize=auto;html=1;entryX=0.5;entryY=0;entryDx=0;entryDy=0;" edge="1" parent="WIyWlLk6GJQsqaUBKTNV-1" source="ZlOKWvTsib9ipnOsue6j-4" target="ZlOKWvTsib9ipnOsue6j-40">
          <mxGeometry relative="1" as="geometry">
            <Array as="points">
              <mxPoint x="325" y="340" />
              <mxPoint x="595" y="340" />
            </Array>
          </mxGeometry>
        </mxCell>
        <mxCell id="ZlOKWvTsib9ipnOsue6j-43" style="edgeStyle=orthogonalEdgeStyle;rounded=0;orthogonalLoop=1;jettySize=auto;html=1;entryX=0.5;entryY=0;entryDx=0;entryDy=0;" edge="1" parent="WIyWlLk6GJQsqaUBKTNV-1" source="ZlOKWvTsib9ipnOsue6j-4" target="ZlOKWvTsib9ipnOsue6j-42">
          <mxGeometry relative="1" as="geometry">
            <Array as="points">
              <mxPoint x="325" y="340" />
              <mxPoint x="735" y="340" />
            </Array>
          </mxGeometry>
        </mxCell>
        <mxCell id="ZlOKWvTsib9ipnOsue6j-4" value="技术" style="ellipse;whiteSpace=wrap;html=1;" vertex="1" parent="WIyWlLk6GJQsqaUBKTNV-1">
          <mxGeometry x="280" y="250" width="90" height="60" as="geometry" />
        </mxCell>
        <mxCell id="ZlOKWvTsib9ipnOsue6j-5" value="年限（4~5年）" style="ellipse;whiteSpace=wrap;html=1;" vertex="1" parent="WIyWlLk6GJQsqaUBKTNV-1">
          <mxGeometry x="450" y="190" width="90" height="60" as="geometry" />
        </mxCell>
        <mxCell id="ZlOKWvTsib9ipnOsue6j-25" value="" style="edgeStyle=orthogonalEdgeStyle;rounded=0;orthogonalLoop=1;jettySize=auto;html=1;" edge="1" parent="WIyWlLk6GJQsqaUBKTNV-1" source="ZlOKWvTsib9ipnOsue6j-11" target="ZlOKWvTsib9ipnOsue6j-22">
          <mxGeometry relative="1" as="geometry">
            <Array as="points">
              <mxPoint x="159" y="550" />
              <mxPoint x="85" y="550" />
            </Array>
          </mxGeometry>
        </mxCell>
        <mxCell id="ZlOKWvTsib9ipnOsue6j-27" value="" style="edgeStyle=orthogonalEdgeStyle;rounded=0;orthogonalLoop=1;jettySize=auto;html=1;" edge="1" parent="WIyWlLk6GJQsqaUBKTNV-1" source="ZlOKWvTsib9ipnOsue6j-11" target="ZlOKWvTsib9ipnOsue6j-26">
          <mxGeometry relative="1" as="geometry">
            <Array as="points">
              <mxPoint x="159" y="550" />
              <mxPoint x="235" y="550" />
            </Array>
          </mxGeometry>
        </mxCell>
        <mxCell id="ZlOKWvTsib9ipnOsue6j-11" value="自考本报考" style="rounded=1;whiteSpace=wrap;html=1;" vertex="1" parent="WIyWlLk6GJQsqaUBKTNV-1">
          <mxGeometry x="114" y="433" width="90" height="45" as="geometry" />
        </mxCell>
        <mxCell id="ZlOKWvTsib9ipnOsue6j-30" value="" style="edgeStyle=orthogonalEdgeStyle;rounded=0;orthogonalLoop=1;jettySize=auto;html=1;" edge="1" parent="WIyWlLk6GJQsqaUBKTNV-1" source="ZlOKWvTsib9ipnOsue6j-22" target="ZlOKWvTsib9ipnOsue6j-29">
          <mxGeometry relative="1" as="geometry" />
        </mxCell>
        <mxCell id="ZlOKWvTsib9ipnOsue6j-22" value="高数" style="rounded=1;whiteSpace=wrap;html=1;" vertex="1" parent="WIyWlLk6GJQsqaUBKTNV-1">
          <mxGeometry x="40" y="585" width="90" height="45" as="geometry" />
        </mxCell>
        <mxCell id="ZlOKWvTsib9ipnOsue6j-32" value="" style="edgeStyle=orthogonalEdgeStyle;rounded=0;orthogonalLoop=1;jettySize=auto;html=1;" edge="1" parent="WIyWlLk6GJQsqaUBKTNV-1" source="ZlOKWvTsib9ipnOsue6j-26" target="ZlOKWvTsib9ipnOsue6j-31">
          <mxGeometry relative="1" as="geometry" />
        </mxCell>
        <mxCell id="ZlOKWvTsib9ipnOsue6j-26" value="英语" style="rounded=1;whiteSpace=wrap;html=1;" vertex="1" parent="WIyWlLk6GJQsqaUBKTNV-1">
          <mxGeometry x="190" y="585" width="90" height="45" as="geometry" />
        </mxCell>
        <mxCell id="ZlOKWvTsib9ipnOsue6j-28" value="要解决的难点" style="text;html=1;align=center;verticalAlign=middle;resizable=0;points=[];autosize=1;strokeColor=none;fillColor=none;" vertex="1" parent="WIyWlLk6GJQsqaUBKTNV-1">
          <mxGeometry x="170" y="500" width="90" height="20" as="geometry" />
        </mxCell>
        <mxCell id="ZlOKWvTsib9ipnOsue6j-46" value="" style="edgeStyle=orthogonalEdgeStyle;rounded=0;orthogonalLoop=1;jettySize=auto;html=1;" edge="1" parent="WIyWlLk6GJQsqaUBKTNV-1" source="ZlOKWvTsib9ipnOsue6j-29" target="ZlOKWvTsib9ipnOsue6j-45">
          <mxGeometry relative="1" as="geometry" />
        </mxCell>
        <mxCell id="ZlOKWvTsib9ipnOsue6j-29" value="自学" style="rounded=1;whiteSpace=wrap;html=1;" vertex="1" parent="WIyWlLk6GJQsqaUBKTNV-1">
          <mxGeometry x="40" y="710" width="90" height="45" as="geometry" />
        </mxCell>
        <mxCell id="ZlOKWvTsib9ipnOsue6j-31" value="培训班" style="rounded=1;whiteSpace=wrap;html=1;" vertex="1" parent="WIyWlLk6GJQsqaUBKTNV-1">
          <mxGeometry x="190" y="665" width="90" height="45" as="geometry" />
        </mxCell>
        <mxCell id="ZlOKWvTsib9ipnOsue6j-35" value="Vue 源码" style="rounded=1;whiteSpace=wrap;html=1;" vertex="1" parent="WIyWlLk6GJQsqaUBKTNV-1">
          <mxGeometry x="280" y="370" width="90" height="45" as="geometry" />
        </mxCell>
        <mxCell id="ZlOKWvTsib9ipnOsue6j-36" value="mini React" style="rounded=1;whiteSpace=wrap;html=1;" vertex="1" parent="WIyWlLk6GJQsqaUBKTNV-1">
          <mxGeometry x="414" y="370" width="90" height="45" as="geometry" />
        </mxCell>
        <mxCell id="ZlOKWvTsib9ipnOsue6j-40" value="学习清单" style="rounded=1;whiteSpace=wrap;html=1;" vertex="1" parent="WIyWlLk6GJQsqaUBKTNV-1">
          <mxGeometry x="550" y="370" width="90" height="45" as="geometry" />
        </mxCell>
        <mxCell id="ZlOKWvTsib9ipnOsue6j-42" value="阿崔" style="rounded=1;whiteSpace=wrap;html=1;" vertex="1" parent="WIyWlLk6GJQsqaUBKTNV-1">
          <mxGeometry x="690" y="370" width="90" height="45" as="geometry" />
        </mxCell>
        <mxCell id="ZlOKWvTsib9ipnOsue6j-44" value="这块先不着急，最主要是要找到方向学习" style="text;html=1;align=center;verticalAlign=middle;resizable=0;points=[];autosize=1;strokeColor=none;fillColor=none;" vertex="1" parent="WIyWlLk6GJQsqaUBKTNV-1">
          <mxGeometry x="430" y="300" width="230" height="20" as="geometry" />
        </mxCell>
        <mxCell id="ZlOKWvTsib9ipnOsue6j-48" value="" style="edgeStyle=orthogonalEdgeStyle;rounded=0;orthogonalLoop=1;jettySize=auto;html=1;" edge="1" parent="WIyWlLk6GJQsqaUBKTNV-1" source="ZlOKWvTsib9ipnOsue6j-45" target="ZlOKWvTsib9ipnOsue6j-47">
          <mxGeometry relative="1" as="geometry" />
        </mxCell>
        <mxCell id="ZlOKWvTsib9ipnOsue6j-45" value="小学/初中" style="rounded=1;whiteSpace=wrap;html=1;" vertex="1" parent="WIyWlLk6GJQsqaUBKTNV-1">
          <mxGeometry x="40" y="835" width="90" height="45" as="geometry" />
        </mxCell>
        <mxCell id="ZlOKWvTsib9ipnOsue6j-50" value="" style="edgeStyle=orthogonalEdgeStyle;rounded=0;orthogonalLoop=1;jettySize=auto;html=1;" edge="1" parent="WIyWlLk6GJQsqaUBKTNV-1" source="ZlOKWvTsib9ipnOsue6j-47" target="ZlOKWvTsib9ipnOsue6j-49">
          <mxGeometry relative="1" as="geometry" />
        </mxCell>
        <mxCell id="ZlOKWvTsib9ipnOsue6j-47" value="高中" style="rounded=1;whiteSpace=wrap;html=1;" vertex="1" parent="WIyWlLk6GJQsqaUBKTNV-1">
          <mxGeometry x="190" y="835" width="90" height="45" as="geometry" />
        </mxCell>
        <mxCell id="ZlOKWvTsib9ipnOsue6j-52" value="" style="edgeStyle=orthogonalEdgeStyle;rounded=0;orthogonalLoop=1;jettySize=auto;html=1;" edge="1" parent="WIyWlLk6GJQsqaUBKTNV-1" source="ZlOKWvTsib9ipnOsue6j-49" target="ZlOKWvTsib9ipnOsue6j-51">
          <mxGeometry relative="1" as="geometry" />
        </mxCell>
        <mxCell id="ZlOKWvTsib9ipnOsue6j-49" value="高数" style="rounded=1;whiteSpace=wrap;html=1;" vertex="1" parent="WIyWlLk6GJQsqaUBKTNV-1">
          <mxGeometry x="360" y="835" width="90" height="45" as="geometry" />
        </mxCell>
        <mxCell id="ZlOKWvTsib9ipnOsue6j-54" value="" style="edgeStyle=orthogonalEdgeStyle;rounded=0;orthogonalLoop=1;jettySize=auto;html=1;" edge="1" parent="WIyWlLk6GJQsqaUBKTNV-1" source="ZlOKWvTsib9ipnOsue6j-51" target="ZlOKWvTsib9ipnOsue6j-53">
          <mxGeometry relative="1" as="geometry" />
        </mxCell>
        <mxCell id="ZlOKWvTsib9ipnOsue6j-51" value="考试本" style="rounded=1;whiteSpace=wrap;html=1;" vertex="1" parent="WIyWlLk6GJQsqaUBKTNV-1">
          <mxGeometry x="360" y="960" width="90" height="45" as="geometry" />
        </mxCell>
        <mxCell id="ZlOKWvTsib9ipnOsue6j-53" value="考试" style="rounded=1;whiteSpace=wrap;html=1;" vertex="1" parent="WIyWlLk6GJQsqaUBKTNV-1">
          <mxGeometry x="190" y="960" width="90" height="45" as="geometry" />
        </mxCell>
      </root>
    </mxGraphModel>
  </diagram>
</mxfile>
